<?xml version="1.0" encoding="utf-8"?>
<svg version="1.1" xmlns:xlink="http://www.w3.org/1999/xlink" width="35px" height="38px" xmlns="http://www.w3.org/2000/svg">
  <g transform="matrix(1 0 0 1 -30 -304 )">
    <path d="M 23.720703125 7.34765625  C 21.82183159722222 6.143663194444444  19.74826388888889 5.541666666666668  17.5 5.541666666666668  C 15.25173611111111 5.541666666666668  13.178168402777779 6.143663194444444  11.279296875 7.34765625  C 9.380425347222223 8.551649305555552  7.876519097222222 10.184461805555552  6.767578125 12.24609375  C 5.658637152777779 14.307725694444445  5.104166666666667 16.559027777777775  5.104166666666667 19  C 5.104166666666667 21.440972222222225  5.658637152777779 23.69227430555555  6.767578125 25.75390625  C 7.876519097222222 27.81553819444444  9.380425347222223 29.448350694444443  11.279296875 30.65234375  C 13.178168402777779 31.856336805555557  15.25173611111111 32.45833333333333  17.5 32.45833333333333  C 19.74826388888889 32.45833333333333  21.82183159722222 31.856336805555557  23.720703125 30.65234375  C 25.619574652777782 29.448350694444443  27.123480902777782 27.81553819444444  28.232421875 25.75390625  C 29.34136284722222 23.69227430555555  29.895833333333332 21.440972222222225  29.895833333333332 19  C 29.895833333333332 16.559027777777775  29.34136284722222 14.307725694444445  28.232421875 12.24609375  C 27.123480902777782 10.184461805555552  25.619574652777782 8.551649305555552  23.720703125 7.34765625  Z M 32.65299479166667 9.462890625  C 34.21766493055555 12.373914930555552  35 15.552951388888884  35 19  C 35 22.44704861111111  34.21766493055555 25.62608506944444  32.65299479166667 28.537109375  C 31.088324652777782 31.448133680555557  28.96538628472222 33.75303819444444  26.2841796875 35.45182291666667  C 23.602973090277782 37.15060763888889  20.674913194444446 38  17.5 38  C 14.325086805555557 38  11.397026909722223 37.15060763888889  8.7158203125 35.45182291666667  C 6.034613715277779 33.75303819444444  3.9116753472222228 31.448133680555557  2.3470052083333335 28.537109375  C 0.7823350694444443 25.62608506944444  0 22.44704861111111  0 19  C 0 15.552951388888884  0.7823350694444443 12.373914930555552  2.3470052083333335 9.462890625  C 3.9116753472222228 6.551866319444444  6.034613715277779 4.246961805555552  8.7158203125 2.548177083333332  C 11.397026909722223 0.8493923611111078  14.325086805555557 0  17.5 0  C 20.674913194444446 0  23.602973090277782 0.8493923611111078  26.2841796875 2.548177083333332  C 28.96538628472222 4.246961805555552  31.088324652777782 6.551866319444444  32.65299479166667 9.462890625  Z " fill-rule="nonzero" fill="#d9001b" stroke="none" transform="matrix(1 0 0 1 30 304 )" />
  </g>
</svg>