<?xml version="1.0" encoding="utf-8"?>
<svg version="1.1" xmlns:xlink="http://www.w3.org/1999/xlink" width="13px" height="19px" xmlns="http://www.w3.org/2000/svg">
  <g transform="matrix(1 0 0 1 -41 -314 )">
    <path d="M 12.741477272727273 7.286931818181818  C 12.913825757575758 7.538825757575754  13 7.844696969696969  13 8.204545454545453  L 13 10.795454545454545  C 13 11.155303030303031  12.913825757575758 11.46117424242424  12.741477272727273 11.713068181818182  C 12.569128787878789 11.96496212121212  12.359848484848486 12.09090909090909  12.113636363636363 12.09090909090909  L 8.272727272727273 12.09090909090909  L 8.272727272727273 17.704545454545457  C 8.272727272727273 18.06439393939394  8.186553030303031 18.37026515151515  8.014204545454545 18.62215909090909  C 7.841856060606062 18.87405303030303  7.632575757575758 19  7.386363636363637 19  L 5.613636363636363 19  C 5.367424242424243 19  5.15814393939394 18.87405303030303  4.985795454545455 18.62215909090909  C 4.81344696969697 18.37026515151515  4.7272727272727275 18.06439393939394  4.7272727272727275 17.704545454545457  L 4.7272727272727275 12.09090909090909  L 0.8863636363636362 12.09090909090909  C 0.6401515151515152 12.09090909090909  0.4308712121212122 11.96496212121212  0.2585227272727273 11.713068181818182  C 0.08617424242424242 11.46117424242424  0 11.155303030303031  0 10.795454545454545  L 0 8.204545454545453  C 0 7.844696969696969  0.08617424242424242 7.538825757575754  0.2585227272727273 7.286931818181818  C 0.4308712121212122 7.035037878787878  0.6401515151515152 6.909090909090909  0.8863636363636362 6.909090909090909  L 4.7272727272727275 6.909090909090909  L 4.7272727272727275 1.2954545454545463  C 4.7272727272727275 0.9356060606060598  4.81344696969697 0.6297348484848474  4.985795454545455 0.3778409090909093  C 5.15814393939394 0.12594696969696906  5.367424242424243 0  5.613636363636363 0  L 7.386363636363637 0  C 7.632575757575758 0  7.841856060606062 0.12594696969696906  8.014204545454545 0.3778409090909093  C 8.186553030303031 0.6297348484848474  8.272727272727273 0.9356060606060598  8.272727272727273 1.2954545454545463  L 8.272727272727273 6.909090909090909  L 12.113636363636363 6.909090909090909  C 12.359848484848486 6.909090909090909  12.569128787878789 7.035037878787878  12.741477272727273 7.286931818181818  Z " fill-rule="nonzero" fill="#d9001b" stroke="none" transform="matrix(1 0 0 1 41 314 )" />
  </g>
</svg>